<mxfile host="Electron" modified="2023-05-28T16:29:04.359Z" agent="Mozilla/5.0 (Windows NT 10.0; Win64; x64) AppleWebKit/537.36 (KHTML, like Gecko) draw.io/21.2.8 Chrome/112.0.5615.165 Electron/24.2.0 Safari/537.36" etag="A5_w9BDz6b5ihQkNYc3Y" version="21.2.8" type="device">
  <diagram name="Page-1" id="RDv3uCmdcbK0cCRIx7P8">
    <mxGraphModel dx="1418" dy="868" grid="1" gridSize="10" guides="1" tooltips="1" connect="1" arrows="1" fold="1" page="1" pageScale="1" pageWidth="850" pageHeight="1100" math="0" shadow="0">
      <root>
        <mxCell id="0" />
        <mxCell id="1" parent="0" />
        <mxCell id="nB7VCTxswRsluJ7VwyWW-1" value="" style="rounded=0;whiteSpace=wrap;html=1;" vertex="1" parent="1">
          <mxGeometry width="1700" height="1100" as="geometry" />
        </mxCell>
        <mxCell id="zFJJiQ436pruUV6m1xw8-23" style="edgeStyle=orthogonalEdgeStyle;rounded=0;orthogonalLoop=1;jettySize=auto;html=1;exitX=1;exitY=0.5;exitDx=0;exitDy=0;entryX=0;entryY=0.5;entryDx=0;entryDy=0;" parent="1" source="zFJJiQ436pruUV6m1xw8-2" target="zFJJiQ436pruUV6m1xw8-12" edge="1">
          <mxGeometry relative="1" as="geometry" />
        </mxCell>
        <mxCell id="zFJJiQ436pruUV6m1xw8-2" value="&lt;font style=&quot;font-size: 24px;&quot;&gt;&lt;b&gt;Block Chain Structure&lt;/b&gt;&lt;/font&gt;" style="shape=hexagon;perimeter=hexagonPerimeter2;whiteSpace=wrap;html=1;fixedSize=1;fillColor=#CCCCFF;" parent="1" vertex="1">
          <mxGeometry x="560" y="40" width="200" height="160" as="geometry" />
        </mxCell>
        <mxCell id="zFJJiQ436pruUV6m1xw8-21" style="edgeStyle=orthogonalEdgeStyle;rounded=0;orthogonalLoop=1;jettySize=auto;html=1;entryX=-0.006;entryY=0.567;entryDx=0;entryDy=0;entryPerimeter=0;" parent="1" source="zFJJiQ436pruUV6m1xw8-3" target="zFJJiQ436pruUV6m1xw8-13" edge="1">
          <mxGeometry relative="1" as="geometry" />
        </mxCell>
        <mxCell id="zFJJiQ436pruUV6m1xw8-3" value="&lt;font style=&quot;font-size: 24px;&quot;&gt;&lt;b&gt;Consensus Mechanism&lt;/b&gt;&lt;/font&gt;" style="shape=process;whiteSpace=wrap;html=1;backgroundOutline=1;fillColor=#FFCCFF;" parent="1" vertex="1">
          <mxGeometry x="240" y="200" width="240" height="120" as="geometry" />
        </mxCell>
        <mxCell id="zFJJiQ436pruUV6m1xw8-22" style="edgeStyle=orthogonalEdgeStyle;rounded=0;orthogonalLoop=1;jettySize=auto;html=1;exitX=1;exitY=0.5;exitDx=0;exitDy=0;entryX=0;entryY=0.5;entryDx=0;entryDy=0;" parent="1" source="zFJJiQ436pruUV6m1xw8-5" target="zFJJiQ436pruUV6m1xw8-15" edge="1">
          <mxGeometry relative="1" as="geometry" />
        </mxCell>
        <mxCell id="zFJJiQ436pruUV6m1xw8-5" value="&lt;font style=&quot;font-size: 24px;&quot;&gt;&lt;b&gt;CRUD Implementation&lt;/b&gt;&lt;/font&gt;" style="shape=internalStorage;whiteSpace=wrap;html=1;backgroundOutline=1;fillColor=#CCFFE6;" parent="1" vertex="1">
          <mxGeometry x="40" y="360" width="320" height="160" as="geometry" />
        </mxCell>
        <mxCell id="zFJJiQ436pruUV6m1xw8-24" style="edgeStyle=orthogonalEdgeStyle;rounded=0;orthogonalLoop=1;jettySize=auto;html=1;exitX=1;exitY=0.5;exitDx=0;exitDy=0;entryX=0;entryY=0.5;entryDx=0;entryDy=0;" parent="1" source="zFJJiQ436pruUV6m1xw8-6" target="zFJJiQ436pruUV6m1xw8-16" edge="1">
          <mxGeometry relative="1" as="geometry" />
        </mxCell>
        <mxCell id="zFJJiQ436pruUV6m1xw8-6" value="&lt;font style=&quot;font-size: 24px;&quot;&gt;&lt;b&gt;UI&lt;/b&gt;&lt;/font&gt;" style="rounded=1;whiteSpace=wrap;html=1;fillColor=#FFFFCC;" parent="1" vertex="1">
          <mxGeometry x="80" y="600" width="240" height="120" as="geometry" />
        </mxCell>
        <mxCell id="zFJJiQ436pruUV6m1xw8-25" style="edgeStyle=orthogonalEdgeStyle;rounded=0;orthogonalLoop=1;jettySize=auto;html=1;exitX=0.875;exitY=0.5;exitDx=0;exitDy=0;exitPerimeter=0;entryX=0;entryY=0.5;entryDx=0;entryDy=0;" parent="1" source="zFJJiQ436pruUV6m1xw8-7" target="zFJJiQ436pruUV6m1xw8-18" edge="1">
          <mxGeometry relative="1" as="geometry" />
        </mxCell>
        <mxCell id="zFJJiQ436pruUV6m1xw8-7" value="&lt;font style=&quot;font-size: 24px;&quot;&gt;&lt;b&gt;Security&lt;/b&gt;&lt;/font&gt;" style="ellipse;shape=cloud;whiteSpace=wrap;html=1;fillColor=#FFE6CC;" parent="1" vertex="1">
          <mxGeometry x="160" y="800" width="280" height="160" as="geometry" />
        </mxCell>
        <mxCell id="zFJJiQ436pruUV6m1xw8-26" style="edgeStyle=orthogonalEdgeStyle;rounded=0;orthogonalLoop=1;jettySize=auto;html=1;entryX=0;entryY=0.5;entryDx=0;entryDy=0;" parent="1" source="zFJJiQ436pruUV6m1xw8-8" target="zFJJiQ436pruUV6m1xw8-19" edge="1">
          <mxGeometry relative="1" as="geometry" />
        </mxCell>
        <mxCell id="zFJJiQ436pruUV6m1xw8-8" value="&lt;font style=&quot;font-size: 24px;&quot;&gt;&lt;b&gt;Tests&lt;/b&gt;&lt;/font&gt;" style="shape=document;whiteSpace=wrap;html=1;boundedLbl=1;fillColor=#FFCCCC;" parent="1" vertex="1">
          <mxGeometry x="520" y="920" width="190" height="150" as="geometry" />
        </mxCell>
        <mxCell id="zFJJiQ436pruUV6m1xw8-12" value="&lt;h1&gt;&lt;strong style=&quot;border-color: var(--border-color);&quot;&gt;&lt;font style=&quot;font-size: 14px;&quot;&gt;Design the Blockchain Structure&lt;/font&gt;&lt;/strong&gt;&lt;br&gt;&lt;/h1&gt;&lt;p&gt;&lt;b&gt;First, you&#39;ll need to design your blockchain. Each block in your blockchain could contain information such as the timestamp, transaction details (like the ID of the inventory item and quantity), and the digital signature of the entity confirming the transaction.&lt;/b&gt;&lt;br&gt;&lt;/p&gt;" style="text;html=1;strokeColor=none;fillColor=#CC99FF;spacing=5;spacingTop=-20;whiteSpace=wrap;overflow=hidden;rounded=0;" parent="1" vertex="1">
          <mxGeometry x="1240" y="40" width="360" height="120" as="geometry" />
        </mxCell>
        <mxCell id="zFJJiQ436pruUV6m1xw8-13" value="&lt;h1&gt;&lt;strong style=&quot;border-color: var(--border-color); background-color: initial;&quot;&gt;&lt;font style=&quot;font-size: 14px;&quot;&gt;Establish Consensus Mechanism&lt;/font&gt;&lt;/strong&gt;&lt;br&gt;&lt;/h1&gt;&lt;p&gt;&lt;b&gt;You will need to decide on a consensus mechanism for your blockchain. Common mechanisms include Proof of Work and Proof of Stake. The choice of consensus mechanism will depend on the specifics of your use case.&lt;/b&gt;&lt;br&gt;&lt;/p&gt;" style="text;html=1;strokeColor=none;fillColor=#FF99FF;spacing=5;spacingTop=-20;whiteSpace=wrap;overflow=hidden;rounded=0;" parent="1" vertex="1">
          <mxGeometry x="1240" y="200" width="360" height="120" as="geometry" />
        </mxCell>
        <mxCell id="zFJJiQ436pruUV6m1xw8-15" value="&lt;h1&gt;&lt;strong style=&quot;border-color: var(--border-color);&quot;&gt;&lt;font style=&quot;font-size: 14px;&quot;&gt;Implement CRUD Operations&lt;/font&gt;&lt;/strong&gt;&lt;br&gt;&lt;/h1&gt;&lt;p&gt;&lt;b&gt;After you&#39;ve defined your blockchain structure, you&#39;ll need to build the CRUD operations. When a new transaction is created, it should be added to the blockchain. Reading a transaction would involve traversing the blockchain to find the relevant block. Updating or deleting might be more challenging since the blockchain is designed to be immutable, but you can always add a new transaction to reflect the update or deletion.&lt;/b&gt;&lt;br&gt;&lt;/p&gt;" style="text;html=1;strokeColor=none;fillColor=#66FF66;spacing=5;spacingTop=-20;whiteSpace=wrap;overflow=hidden;rounded=0;" parent="1" vertex="1">
          <mxGeometry x="1240" y="360" width="360" height="200" as="geometry" />
        </mxCell>
        <mxCell id="zFJJiQ436pruUV6m1xw8-16" value="&lt;h1&gt;&lt;strong style=&quot;border-color: var(--border-color);&quot;&gt;&lt;font style=&quot;font-size: 14px;&quot;&gt;Build a User Interface&lt;/font&gt;&lt;/strong&gt;&lt;br&gt;&lt;/h1&gt;&lt;p&gt;&lt;b&gt;You&#39;ll also need a user interface (UI) for users to interact with your application. The UI should allow users to perform all the CRUD operations, and potentially more, depending on your requirements.&lt;/b&gt;&lt;br&gt;&lt;/p&gt;" style="text;html=1;strokeColor=none;fillColor=#FFFF66;spacing=5;spacingTop=-20;whiteSpace=wrap;overflow=hidden;rounded=0;" parent="1" vertex="1">
          <mxGeometry x="1240" y="600" width="360" height="120" as="geometry" />
        </mxCell>
        <mxCell id="zFJJiQ436pruUV6m1xw8-18" value="&lt;h1&gt;&lt;strong style=&quot;border-color: var(--border-color);&quot;&gt;&lt;font style=&quot;font-size: 14px;&quot;&gt;Ensure Security&lt;/font&gt;&lt;/strong&gt;&lt;br&gt;&lt;/h1&gt;&lt;p&gt;&lt;b&gt;Blockchain&#39;s inherent security features, such as encryption and decentralization, can provide a high level of security. However, you&#39;ll still need to ensure that your application is secure. This could involve techniques such as securely managing private keys and implementing secure communication channels.&lt;/b&gt;&lt;br&gt;&lt;/p&gt;" style="text;html=1;strokeColor=none;fillColor=#FFB366;spacing=5;spacingTop=-20;whiteSpace=wrap;overflow=hidden;rounded=0;" parent="1" vertex="1">
          <mxGeometry x="1240" y="760" width="360" height="160" as="geometry" />
        </mxCell>
        <mxCell id="zFJJiQ436pruUV6m1xw8-19" value="&lt;h1&gt;&lt;strong style=&quot;border-color: var(--border-color);&quot;&gt;&lt;font style=&quot;font-size: 14px;&quot;&gt;Test Your Application&lt;/font&gt;&lt;/strong&gt;&lt;br&gt;&lt;/h1&gt;&lt;p&gt;&lt;b&gt;Finally, make sure to thoroughly test your application to ensure that it works as expected and is secure.&lt;/b&gt;&lt;br&gt;&lt;/p&gt;" style="text;html=1;strokeColor=none;fillColor=#FF6666;spacing=5;spacingTop=-20;whiteSpace=wrap;overflow=hidden;rounded=0;" parent="1" vertex="1">
          <mxGeometry x="1240" y="960" width="340" height="120" as="geometry" />
        </mxCell>
        <mxCell id="zFJJiQ436pruUV6m1xw8-27" value="Text" style="text;html=1;align=center;verticalAlign=middle;resizable=0;points=[];autosize=1;strokeColor=none;fillColor=none;" parent="1" vertex="1">
          <mxGeometry x="715" y="975" width="50" height="30" as="geometry" />
        </mxCell>
        <mxCell id="nB7VCTxswRsluJ7VwyWW-3" value="&lt;h1&gt;Component Overview&lt;/h1&gt;&lt;div&gt;Birds-eye view of the block chain ecosystem in parts&lt;/div&gt;" style="text;html=1;strokeColor=none;fillColor=none;spacing=5;spacingTop=-20;whiteSpace=wrap;overflow=hidden;rounded=0;" vertex="1" parent="1">
          <mxGeometry x="10" y="10" width="190" height="120" as="geometry" />
        </mxCell>
      </root>
    </mxGraphModel>
  </diagram>
</mxfile>
